<svg xmlns="http://www.w3.org/2000/svg" version="1.1" viewBox="-5.0 -10.0 110.0 135.0">
 <path d="m50 12.5c20.68 0 37.5 16.82 37.5 37.5s-16.82 37.5-37.5 37.5-37.5-16.82-37.5-37.5 16.82-37.5 37.5-37.5m0-10c-26.23 0-47.5 21.27-47.5 47.5s21.27 47.5 47.5 47.5 47.5-21.27 47.5-47.5-21.27-47.5-47.5-47.5z"/>
 <path d="m58.84 34.09-8.8398 8.8398-8.8398-8.8398c-1.9492-1.9492-5.1211-1.9492-7.0703 0-1.9492 1.9492-1.9492 5.1211 0 7.0703l8.8398 8.8398-8.8398 8.8398c-1.9492 1.9492-1.9492 5.1211 0 7.0703 1.9492 1.9492 5.1211 1.9492 7.0703 0l8.8398-8.8398 8.8398 8.8398c1.9492 1.9492 5.1211 1.9492 7.0703 0 1.9492-1.9492 1.9492-5.1211 0-7.0703l-8.8398-8.8398 8.8398-8.8398c1.9492-1.9492 1.9492-5.1211 0-7.0703-1.9492-1.9492-5.1211-1.9492-7.0703 0z"/>
<text x="0.0" y="117.5" font-size="5.0" font-weight="bold" font-family="Arbeit Regular, Helvetica, Arial-Unicode, Arial, Sans-serif" fill="#000000">Created by niranegii</text><text x="0.0" y="122.5" font-size="5.0" font-weight="bold" font-family="Arbeit Regular, Helvetica, Arial-Unicode, Arial, Sans-serif" fill="#000000">from Noun Project</text></svg>