<?xml version="1.0" encoding="UTF-8" standalone="no"?>
<svg
   version="1.1"
   viewBox="-5 -5 110 110"
   id="svg8"
   sodipodi:docname="noun-house-6718391.svg"
   width="110"
   height="110"
   inkscape:version="1.2.2 (b0a8486541, 2022-12-01)"
   xmlns:inkscape="http://www.inkscape.org/namespaces/inkscape"
   xmlns:sodipodi="http://sodipodi.sourceforge.net/DTD/sodipodi-0.dtd"
   xmlns="http://www.w3.org/2000/svg"
   xmlns:svg="http://www.w3.org/2000/svg">
  <defs
     id="defs12" />
  <sodipodi:namedview
     id="namedview10"
     pagecolor="#ffffff"
     bordercolor="#666666"
     borderopacity="1.0"
     inkscape:showpageshadow="2"
     inkscape:pageopacity="0.0"
     inkscape:pagecheckerboard="0"
     inkscape:deskcolor="#d1d1d1"
     showgrid="false"
     inkscape:zoom="5.0962963"
     inkscape:cx="29.923692"
     inkscape:cy="67.59811"
     inkscape:window-width="1920"
     inkscape:window-height="1043"
     inkscape:window-x="0"
     inkscape:window-y="0"
     inkscape:window-maximized="1"
     inkscape:current-layer="svg8" />
  <path
     d="m 49.438,19.129 33.438,24.953 c 1.1055,0.82422 2.6719,0.59766 3.5,-0.50781 0.82422,-1.1055 0.59766,-2.6719 -0.51172,-3.5 l -10.887,-8.125 v -14.957 c 0,-0.55469 -0.44531,-1 -1,-1 h -9.4766 c -0.55078,0 -1,0.44531 -1,1 v 6.3906 l -11.379,-8.4883 c -1.6133,-1.207 -3.8359,-1.1914 -5.4336,0.03906 l -32.711,25.164 c -1.0938,0.83984 -1.3008,2.4102 -0.45703,3.5039 0.83984,1.0938 2.4102,1.3008 3.5039,0.45703 z M 20.454,47.824 c -0.49219,0.37891 -0.77734,0.96484 -0.77734,1.5859 v 34.582 c 0,1.1055 0.89453,2 2,2 h 18.867 v -24.09 c 0,-1.1016 0.89453,-2 2,-2 h 14.785 c 1.1016,0 2,0.89844 2,2 v 24.09 h 17.824 c 1.1055,0 2,-0.89453 2,-2 v -34.582 c 0,-0.62109 -0.28906,-1.207 -0.77734,-1.5859 l -27.738,-21.41 c -0.72266,-0.55859 -1.7266,-0.55859 -2.4453,0 z"
     fill-rule="evenodd"
     id="path2" />
</svg>
