<?xml version="1.0" encoding="UTF-8" standalone="no"?>
<svg
   version="1.1"
   viewBox="-5 -5 110 110"
   id="svg12"
   sodipodi:docname="noun-tap-7739295.svg"
   width="110"
   height="110"
   inkscape:version="1.2.2 (b0a8486541, 2022-12-01)"
   xmlns:inkscape="http://www.inkscape.org/namespaces/inkscape"
   xmlns:sodipodi="http://sodipodi.sourceforge.net/DTD/sodipodi-0.dtd"
   xmlns="http://www.w3.org/2000/svg"
   xmlns:svg="http://www.w3.org/2000/svg">
  <defs
     id="defs16" />
  <sodipodi:namedview
     id="namedview14"
     pagecolor="#ffffff"
     bordercolor="#666666"
     borderopacity="1.0"
     inkscape:showpageshadow="2"
     inkscape:pageopacity="0.0"
     inkscape:pagecheckerboard="0"
     inkscape:deskcolor="#d1d1d1"
     showgrid="false"
     inkscape:zoom="4.9037037"
     inkscape:cx="33.138218"
     inkscape:cy="49.656344"
     inkscape:window-width="1600"
     inkscape:window-height="831"
     inkscape:window-x="0"
     inkscape:window-y="32"
     inkscape:window-maximized="1"
     inkscape:current-layer="svg12" />
  <path
     d="m 32.172,63 c 1.6992,2.5586 6.1602,8.7383 9.5586,13.219 2.1367,2.8398 5.4688,4.5234 9.0195,4.5625 l 5.7812,0.10156 v -0.0039 c 7.0586,-0.01563 12.777,-5.7383 12.781,-12.801 v -12.758 c -0.0039,-1.25 -0.58594,-2.4297 -1.5742,-3.1914 -0.98828,-0.76172 -2.2773,-1.0234 -3.4883,-0.70703 -0.625,0.15625 -1.1992,0.48438 -1.6562,0.9375 -0.48047,-1.75 -2.0664,-2.9688 -3.8828,-2.9805 -1.0039,0.0039 -1.9688,0.375 -2.7188,1.043 -0.36328,-1.3008 -1.3594,-2.3281 -2.6445,-2.7344 -1.2852,-0.41016 -2.6914,-0.14062 -3.7344,0.71094 v -14.957 c 0.02344,-1.8906 -1.2227,-3.5625 -3.043,-4.082 -1.1992,-0.32422 -2.4844,-0.05859 -3.457,0.71875 -1,0.76172 -1.5859,1.9453 -1.582,3.2031 v 26.359 l -3.7383,-3.3789 c -1.6133,-1.457 -4.0586,-1.4648 -5.6797,-0.02344 -2.7422,2.5 -0.83984,5.3828 0.05859,6.7617 z"
     id="path2" />
  <path
     d="m 53.621,44.867 c 5.0859,-3.5195 7.2969,-9.9375 5.4531,-15.84 -1.8438,-5.9062 -7.3125,-9.9258 -13.5,-9.9258 -6.1836,0.0039 -11.652,4.0273 -13.492,9.9297 -1.8398,5.9062 0.37109,12.324 5.4609,15.84 0.45703,0.3125 1.0781,0.19531 1.3906,-0.26172 0.3125,-0.45703 0.19531,-1.0781 -0.26172,-1.3906 -4.3633,-3.0234 -6.2578,-8.5312 -4.6758,-13.598 1.5859,-5.0703 6.2773,-8.5195 11.59,-8.5195 5.3086,0.0039 10,3.457 11.582,8.5234 1.582,5.0703 -0.31641,10.578 -4.6836,13.598 -0.22656,0.14844 -0.38672,0.37891 -0.4375,0.64453 -0.05469,0.26562 0.0039,0.53906 0.15625,0.76172 0.15625,0.22266 0.39062,0.375 0.66016,0.41797 0.26562,0.04687 0.53906,-0.01953 0.75781,-0.17969 z"
     id="path4" />
  <path
     d="m 52.652,37.324 c 0.50781,0.21875 1.0977,-0.01563 1.3164,-0.51953 0.96875,-2.3047 0.94922,-4.9023 -0.04687,-7.1914 -0.07813,-0.12891 -0.14062,-0.26172 -0.20312,-0.39062 -0.08203,-0.16406 -0.16406,-0.32812 -0.25781,-0.48828 -1.6055,-2.8125 -4.5859,-4.5586 -7.8242,-4.5781 -3.2383,-0.01563 -6.2422,1.6953 -7.8789,4.4883 -0.22656,0.33594 -0.41797,0.69141 -0.56641,1.0664 -0.94922,2.2695 -0.94922,4.8242 0,7.0938 0.21875,0.50391 0.80859,0.73828 1.3164,0.51953 0.50391,-0.21875 0.73828,-0.80859 0.51953,-1.3164 -0.73047,-1.7656 -0.73047,-3.7539 0.0078,-5.5195 0.10547,-0.26953 0.24219,-0.52734 0.40625,-0.76562 1.2461,-2.2188 3.5977,-3.582 6.1406,-3.5664 2.5391,0.0039 4.8789,1.3633 6.1406,3.5664 0.07813,0.12891 0.14062,0.26172 0.20312,0.39062 0.08203,0.16406 0.16406,0.32812 0.21094,0.39453 0.72656,1.7617 0.72656,3.7383 -0.0039,5.5 -0.21875,0.50781 0.01563,1.0938 0.51953,1.3164 z"
     id="path6" />
</svg>
