<?xml version="1.0" encoding="UTF-8" standalone="no"?>
<svg
   version="1.1"
   x="0px"
   y="0px"
   viewBox="4.5 5 90.073282 80.125"
   xml:space="preserve"
   id="svg8"
   sodipodi:docname="noun-empty-house-5431675.svg"
   width="91.031509"
   height="80.977394"
   inkscape:version="1.2.2 (b0a8486541, 2022-12-01)"
   xmlns:inkscape="http://www.inkscape.org/namespaces/inkscape"
   xmlns:sodipodi="http://sodipodi.sourceforge.net/DTD/sodipodi-0.dtd"
   xmlns="http://www.w3.org/2000/svg"
   xmlns:svg="http://www.w3.org/2000/svg"><defs
     id="defs12" /><sodipodi:namedview
     id="namedview10"
     pagecolor="#ffffff"
     bordercolor="#666666"
     borderopacity="1.0"
     inkscape:showpageshadow="2"
     inkscape:pageopacity="0.0"
     inkscape:pagecheckerboard="0"
     inkscape:deskcolor="#d1d1d1"
     showgrid="false"
     inkscape:zoom="5.504"
     inkscape:cx="44.78561"
     inkscape:cy="31.159157"
     inkscape:window-width="1600"
     inkscape:window-height="831"
     inkscape:window-x="320"
     inkscape:window-y="1112"
     inkscape:window-maximized="1"
     inkscape:current-layer="svg8" /><path
     d="m 77.786641,85.125 h -56.4 c -3.2,0 -5.8,-2.6 -5.8,-5.8 v -28 h -4.7 c -2.7000005,0 -5.0000005,-1.6 -6.0000005,-4.1 -0.9,-2.5 -0.2,-5.3 1.8,-7 L 45.686641,6.425 c 2.2,-1.9 5.4,-1.9 7.6,0 l 13.8,12 c 0.4,-2.3 2.4,-4 4.9,-4 h 6.6 c 2.7,0 4.9,2.2 4.9,4.9 v 13.2 l 8.9,7.7 c 2,1.8 2.7,4.5 1.8,7 -0.9,2.5 -3.3,4.1 -6,4.1 h -4.7 v 28 c 0,3.2 -2.6,5.8 -5.7,5.8 z m -28.2,-74.6 c 0,0 -0.1,0 -0.1,0 l -39,33.8 c -0.3,0.2 -0.3,0.5 -0.2,0.8 0.1,0.3 0.4,0.5 0.7,0.5 h 7.5 c 1.6,0 2.8,1.3 2.8,2.8 v 30.8 c 0,0.1 0.1,0.2 0.2,0.2 h 56.3 c 0.1,0 0.2,-0.1 0.2,-0.2 v -30.7 c 0,-1.6 1.3,-2.8 2.8,-2.8 h 7.5 c 0.3,0 0.6,-0.2 0.7,-0.5 0.1,-0.3 0,-0.6 -0.2,-0.8 v 0 l -9.8,-8.5 c -0.6,-0.5 -1,-1.3 -1,-2.1 v -13.9 h -5.2 v 4.5 c 0,1.1 -0.6,2.1 -1.6,2.6 -1,0.5 -2.2,0.3 -3,-0.4 l -18.5,-16 c 0,0 -0.1,-0.1 -0.1,-0.1 z"
     id="path2" /></svg>
