<?xml version="1.0" encoding="UTF-8" standalone="no"?>
<svg
   version="1.1"
   x="0px"
   y="0px"
   viewBox="0 0 100 100"
   id="svg10"
   sodipodi:docname="noun-play-1570735.svg"
   width="100"
   height="100"
   inkscape:version="1.2.2 (b0a8486541, 2022-12-01)"
   xmlns:inkscape="http://www.inkscape.org/namespaces/inkscape"
   xmlns:sodipodi="http://sodipodi.sourceforge.net/DTD/sodipodi-0.dtd"
   xmlns="http://www.w3.org/2000/svg"
   xmlns:svg="http://www.w3.org/2000/svg">
  <defs
     id="defs14" />
  <sodipodi:namedview
     id="namedview12"
     pagecolor="#ffffff"
     bordercolor="#666666"
     borderopacity="1.0"
     inkscape:showpageshadow="2"
     inkscape:pageopacity="0.0"
     inkscape:pagecheckerboard="0"
     inkscape:deskcolor="#d1d1d1"
     showgrid="false"
     inkscape:zoom="5.296"
     inkscape:cx="29.739426"
     inkscape:cy="46.35574"
     inkscape:window-width="1600"
     inkscape:window-height="831"
     inkscape:window-x="0"
     inkscape:window-y="32"
     inkscape:window-maximized="1"
     inkscape:current-layer="svg10" />
  <g
     transform="translate(0,-952.36218)"
     id="g4">
    <path
       style="color:#000000;text-indent:0;text-transform:none;direction:ltr;baseline-shift:baseline;enable-background:accumulate"
       d="m 50,961.36217 c -22.6198,0 -41,18.3802 -41,41.00003 0,22.6198 18.3802,41 41,41 22.6198,0 41,-18.3802 41,-41 0,-22.61983 -18.3802,-41.00003 -41,-41.00003 z m 0,4 c 20.458,0 37,16.542 37,37.00003 0,20.458 -16.542,37 -37,37 -20.458,0 -37,-16.542 -37,-37 0,-20.45803 16.542,-37.00003 37,-37.00003 z m -10.625,18 c -2.3118,0.052 -4.3159,1.90877 -4.375,4.5625 v 28.84373 c 0.079,3.5382 3.6119,5.6844 6.7188,4 l 25,-14.4687 c 1.3606,-0.7903 2.2812,-2.2408 2.2812,-3.9375 0,-1.6967 -0.9205,-3.14733 -2.2812,-3.93753 l -25,-14.46875 c -0.7768,-0.4211 -1.5732,-0.6111 -2.3438,-0.59375 z"
       fill="#000000"
       fill-opacity="1"
       stroke="none"
       marker="none"
       visibility="visible"
       display="inline"
       overflow="visible"
       id="path2" />
  </g>
</svg>
