<?xml version="1.0" encoding="UTF-8" standalone="no"?>
<svg
   version="1.1"
   viewBox="-5 -5 110 110"
   id="svg10"
   sodipodi:docname="noun-change-7442874.svg"
   width="110"
   height="110"
   inkscape:version="1.2.2 (b0a8486541, 2022-12-01)"
   xmlns:inkscape="http://www.inkscape.org/namespaces/inkscape"
   xmlns:sodipodi="http://sodipodi.sourceforge.net/DTD/sodipodi-0.dtd"
   xmlns="http://www.w3.org/2000/svg"
   xmlns:svg="http://www.w3.org/2000/svg">
  <defs
     id="defs14" />
  <sodipodi:namedview
     id="namedview12"
     pagecolor="#ffffff"
     bordercolor="#666666"
     borderopacity="1.0"
     inkscape:showpageshadow="2"
     inkscape:pageopacity="0.0"
     inkscape:pagecheckerboard="0"
     inkscape:deskcolor="#d1d1d1"
     showgrid="false"
     inkscape:zoom="4.9037037"
     inkscape:cx="33.138218"
     inkscape:cy="67.601964"
     inkscape:window-width="1600"
     inkscape:window-height="831"
     inkscape:window-x="0"
     inkscape:window-y="32"
     inkscape:window-maximized="1"
     inkscape:current-layer="svg10" />
  <path
     d="M 96.641,44.828 H 89.1722 C 86.6253,25.469 70.0472,10.469 50.0002,10.469 c -10.391,0 -19.844,4.0312 -26.906,10.594 1.5,0.8125 2.7969,2 3.7188,3.4844 l 4.4062,6.8906 c 4.7969,-4.8438 11.438,-7.8594 18.766,-7.8594 12.781,0 23.422,9.1562 25.844,21.234 h -9.3594 c -1.4219,0 -2.2812,1.5781 -1.5156,2.7812 l 15.078,23.156 c 0.70312,1.0938 2.3125,1.0938 3.0156,0 l 15.078,-23.156 c 0.78125,-1.2031 -0.07813,-2.7812 -1.5156,-2.7812 z"
     id="path2" />
  <path
     d="m 73.188,75.438 -4.4062,-6.8906 c -4.7969,4.8438 -11.438,7.8594 -18.766,7.8594 -12.781,0 -23.422,-9.1406 -25.844,-21.234 h 9.3594 c 1.4219,0 2.2812,-1.5781 1.5156,-2.7812 l -15.078,-23.156 c -0.70312,-1.0938 -2.3125,-1.0938 -3.0156,0 l -15.094,23.156 c -0.78125,1.2031 0.078125,2.7812 1.5156,2.7812 h 7.4531 c 2.5469,19.359 19.125,34.344 39.172,34.344 10.375,0 19.844,-4.0312 26.891,-10.594 -1.5,-0.8125 -2.7969,-2 -3.7188,-3.4844 z"
     id="path4" />
</svg>
