<?xml version="1.0" encoding="UTF-8" standalone="no"?>
<svg
   version="1.1"
   viewBox="-5 -5 109 109"
   id="svg14"
   sodipodi:docname="noun-settings-6846720.svg"
   inkscape:version="1.2.2 (b0a8486541, 2022-12-01)"
   width="109"
   height="109"
   xmlns:inkscape="http://www.inkscape.org/namespaces/inkscape"
   xmlns:sodipodi="http://sodipodi.sourceforge.net/DTD/sodipodi-0.dtd"
   xmlns="http://www.w3.org/2000/svg"
   xmlns:svg="http://www.w3.org/2000/svg">
  <defs
     id="defs18" />
  <sodipodi:namedview
     id="namedview16"
     pagecolor="#ffffff"
     bordercolor="#666666"
     borderopacity="1.0"
     inkscape:showpageshadow="2"
     inkscape:pageopacity="0.0"
     inkscape:pagecheckerboard="0"
     inkscape:deskcolor="#d1d1d1"
     showgrid="false"
     inkscape:zoom="4.9037037"
     inkscape:cx="21.106495"
     inkscape:cy="53.938822"
     inkscape:window-width="1600"
     inkscape:window-height="831"
     inkscape:window-x="0"
     inkscape:window-y="32"
     inkscape:window-maximized="1"
     inkscape:current-layer="svg14" />
  <g
     id="g8">
    <path
       d="m 25.789,78.488 c 1.8789,-0.46875 3.2109,-1.9688 4.5,-3.4102 0.48828,-0.55078 1.2617,-1.4219 1.75,-1.7812 1.1602,0.67188 2.4219,1.25 3.6289,1.8086 1.0781,0.5 2.6289,1.2109 3.3281,1.7109 -0.05859,0.35938 -0.16016,0.85938 -0.23828,1.2188 -0.44141,2.0312 -1.4805,6.7891 2.8516,8.5195 1.5117,0.60156 4.3711,1.0117 7.3906,1.0117 3.4297,0 7.0508,-0.53125 9.0703,-1.8984 1.8711,-1.2695 2.1484,-2.9219 2.1484,-3.7891 0,-1.4609 -0.35938,-2.8789 -0.67969,-4.1406 -0.16016,-0.64062 -0.39844,-1.5508 -0.44141,-2.0703 0.71094,-0.44922 1.3594,-0.96875 2,-1.4609 0.71094,-0.55078 1.8789,-1.4609 2.3984,-1.5898 0.39844,0.26953 1.25,1.1484 1.8203,1.75 1.9492,2.0391 4.1602,4.3516 7.0781,4.3906 1.0117,-0.01953 2.5391,-0.26953 3.9609,-1.6914 10.18,-10.191 7.9609,-15.449 6.5312,-17.23 -1.6914,-2.1094 -3.8594,-2.5703 -5.4688,-2.6719 0.03125,-0.62109 0.03906,-1.2617 0.05078,-1.8789 0.01953,-0.98828 0.03906,-2.5508 0.23828,-3.2812 0.57812,-0.03125 1.2695,0.08984 1.9492,0.21094 1.4883,0.26172 6.0117,1.0586 6.9688,-3.7812 0.69141,-3.4492 -1.5195,-12.219 -4.4883,-15.852 -1.5195,-1.8516 -3.0781,-2.2383 -4.1289,-2.2383 -1.8594,0 -3.4492,0.58984 -4.7305,1.0586 -0.85938,0.30859 -1.8281,0.67188 -2.1211,0.51953 l -0.30859,-0.14844 c -3.3281,-1.6602 -4.1602,-2.5195 -4.2695,-2.9102 0,0 0.01172,-0.07813 0.12109,-0.25 0.28906,-0.46875 0.58984,-0.92969 0.87109,-1.3906 1.9414,-3.0312 5.1914,-8.1016 0.32813,-11.98 -3.2812,-2.6211 -18.672,-6.3789 -24.398,-2.6992 -2.1797,1.3984 -3.1016,3.7891 -2.4492,6.3984 0.03125,0.10156 0.05859,0.21094 0.10156,0.30859 0.5,1.3516 0.87891,3.0312 0.94141,3.9883 -0.78125,0.28906 -1.5508,0.62109 -2.3008,0.94922 -1.0117,0.44141 -2.3711,1.0312 -3.0117,1.1016 -0.62109,-0.21875 -2.0898,-1.3008 -2.9805,-1.9609 -2.9688,-2.1914 -6.6719,-4.8984 -9.9102,-2.4805 -2.1016,1.5781 -5.5586,7.1211 -7.2695,10.141 -5.2891,9.3398 -4.25,11.398 -3.6992,12.512 1.4609,2.9297 4.9102,2.7891 7.4297,2.6914 0.53906,-0.01953 1.3203,-0.05078 1.8984,-0.03125 0.23828,2.4883 -0.30859,5.8281 -0.87109,6.7891 -0.30859,0.14062 -0.89062,0.33984 -1.3281,0.48828 -2.4805,0.87109 -6.2383,2.1992 -7.6211,5.4609 -0.51953,1.2305 -0.89063,3.2305 0.28906,5.8008 6.1328,13.312 10.82,14.352 13.07,13.789 z M 17.9609,61.261 c 0.35156,-0.82031 2.9688,-1.7383 4.0781,-2.1406 1.1016,-0.39062 2.0508,-0.71875 2.7891,-1.2188 3.6797,-2.4492 3.7617,-10.871 3.1719,-13.801 -0.82812,-4.1719 -5.4219,-3.9883 -7.8906,-3.8906 -0.37891,0.01172 -0.87109,0.03125 -1.3281,0.03906 1.2695,-3.6484 6.1484,-11.879 8.2812,-14.18 0.83984,0.39063 2.2695,1.4297 3.1797,2.1016 2.1914,1.6094 4.2617,3.1289 6.4219,3.1289 1.8398,0 3.7109,-0.82031 5.5195,-1.6016 0.91016,-0.39844 1.8516,-0.80078 2.6484,-1.0391 1.1602,-0.35156 2.1016,-1.1484 2.6484,-2.2695 1.3203,-2.6602 0.12109,-6.8789 -0.58984,-8.8789 0.82812,-0.41016 3.5,-0.83984 8.3086,-0.10938 4.6602,0.71094 8.25,2.0117 8.9492,2.5391 0.21094,0.17188 0.28906,0.28125 0.30078,0.28906 0.07813,0.60938 -1.1797,2.5898 -1.9414,3.7695 -0.30859,0.48047 -0.62891,0.98047 -0.94141,1.4883 -1.2383,2.0312 -1.1016,3.8398 -0.76953,5 1.0117,3.5117 4.9883,5.4883 7.3711,6.6719 l 0.30078,0.14844 c 2.6211,1.3086 5.0781,0.39844 6.8789,-0.26172 0.76172,-0.28125 1.5,-0.55078 2.1602,-0.64844 1.2188,1.4219 3.1406,7.0391 3.2695,9.9414 -0.03125,-0.01172 -0.05859,-0.01172 -0.08984,-0.01953 -1.1797,-0.21094 -2.7891,-0.48828 -4.5312,-0.14062 -4.5781,0.92187 -4.6602,6 -4.7109,9.0312 -0.01953,1.0312 -0.03125,2.1016 -0.17187,2.7812 -0.28906,1.4688 -0.03906,2.7109 0.75,3.6797 1.2188,1.4805 2.9883,1.4805 4.1602,1.4805 1.3398,0 1.6992,0.07813 1.9492,0.37891 0.30078,1.0391 -1.7695,4.9805 -5.8711,9.1406 -0.71875,-0.42188 -1.9414,-1.6914 -2.6289,-2.4219 -1.1719,-1.2188 -2.2695,-2.3789 -3.5391,-3.0117 -3.5312,-1.7617 -6.6406,0.64844 -8.6992,2.25 -0.62891,0.48828 -1.2188,0.94922 -1.75,1.2695 -3.5586,2.1406 -2.5508,6.1094 -1.9492,8.4883 0.14844,0.60156 0.30859,1.2109 0.39844,1.75 -2.0586,0.69922 -7.4688,0.80859 -9.8281,0.16016 0.03906,-0.51953 0.21094,-1.3008 0.32812,-1.8281 0.35938,-1.6406 0.73047,-3.3281 0.01172,-4.9219 -0.98828,-2.2305 -3.5195,-3.3906 -6.4492,-4.7383 -1.1797,-0.53906 -2.4102,-1.1094 -3.3789,-1.6914 -4.0586,-2.4297 -7.2695,1.1797 -9,3.1289 -0.33984,0.39062 -0.80078,0.89844 -1.1719,1.2617 -1.3516,-1.1484 -4.0312,-4.8789 -6.4492,-10.141 C 17.94151,61.68968 17.91026,61.36937 17.96104,61.26 Z"
       id="path2" />
    <path
       d="m 49.75,64.34 c 2.3086,0 4.6914,-0.46875 6.9883,-1.4688 3.9219,-1.6914 7.0312,-4.6484 8.7617,-8.3281 1.7891,-3.8086 1.9102,-7.9219 0.32031,-11.578 -1.5781,-3.6602 -4.6602,-6.3906 -8.6602,-7.6914 -3.8711,-1.25 -8.1484,-1.0117 -12.07,0.69141 -3.9219,1.6914 -7.0312,4.6484 -8.7617,8.3281 -1.7891,3.8086 -1.9102,7.9219 -0.32031,11.578 2.3125,5.3398 7.793,8.4688 13.742,8.4688 z M 41.7617,46.852 c 1.1094,-2.3516 3.1406,-4.2617 5.7109,-5.3789 1.5117,-0.64844 3.0781,-0.98047 4.6289,-0.98047 1.0898,0 2.1719,0.17187 3.1992,0.5 2.3398,0.76172 4.1211,2.3086 5.0117,4.3711 0.89062,2.0586 0.80078,4.4102 -0.23828,6.6406 -1.1094,2.3516 -3.1406,4.2617 -5.7109,5.3789 -5.1797,2.2383 -10.941,0.5 -12.84,-3.8789 -0.89453,-2.0742 -0.8125,-4.4336 0.23828,-6.6523 z"
       id="path4" />
    <path
       d="m 83.922,20.02 c -1.4414,-0.82031 -3.3008,-0.33984 -4.1211,1.1016 -0.82031,1.4414 -0.35156,3.25 1.0898,4.0781 0.03906,0.01953 3.6016,2.3516 6.2617,10.359 0.42188,1.2617 1.5898,2.0508 2.8516,2.0508 0.30859,0 0.62891,-0.05078 0.94922,-0.14844 1.5703,-0.51953 2.4219,-2.2188 1.8984,-3.7891 -3.4219,-10.262 -8.3711,-13.332 -8.9297,-13.652 z"
       id="path6" />
  </g>
</svg>
