<?xml version="1.0" encoding="UTF-8" standalone="no"?>
<svg
   viewBox="0 0 24 24"
   x="0px"
   y="0px"
   version="1.1"
   id="svg14"
   sodipodi:docname="noun-setting-simple-4547794.svg"
   inkscape:version="1.2.2 (b0a8486541, 2022-12-01)"
   width="24"
   height="24"
   xmlns:inkscape="http://www.inkscape.org/namespaces/inkscape"
   xmlns:sodipodi="http://sodipodi.sourceforge.net/DTD/sodipodi-0.dtd"
   xmlns="http://www.w3.org/2000/svg"
   xmlns:svg="http://www.w3.org/2000/svg"
   xmlns:rdf="http://www.w3.org/1999/02/22-rdf-syntax-ns#"
   xmlns:cc="http://creativecommons.org/ns#"
   xmlns:dc="http://purl.org/dc/elements/1.1/">
  <defs
     id="defs18" />
  <sodipodi:namedview
     id="namedview16"
     pagecolor="#ffffff"
     bordercolor="#666666"
     borderopacity="1.0"
     inkscape:showpageshadow="2"
     inkscape:pageopacity="0.0"
     inkscape:pagecheckerboard="0"
     inkscape:deskcolor="#d1d1d1"
     showgrid="false"
     inkscape:zoom="22.066667"
     inkscape:cx="11.759819"
     inkscape:cy="12.348942"
     inkscape:window-width="1600"
     inkscape:window-height="831"
     inkscape:window-x="0"
     inkscape:window-y="32"
     inkscape:window-maximized="1"
     inkscape:current-layer="svg14" />
  <title
     id="title2">Artboard 87</title>
  <g
     id="g8"
     inkscape:label="g8">
    <path
       d="m 13.61,21.75 h -3.22 a 2.14,2.14 0 0 1 -2.14,-2.14 0.63,0.63 0 0 0 -0.32,-0.56 0.61,0.61 0 0 0 -0.64,0 2.12,2.12 0 0 1 -1.63,0.22 2.18,2.18 0 0 1 -1.3,-1 L 2.75,15.48 A 2.14,2.14 0 0 1 3.53,12.56 0.63,0.63 0 0 0 3.86,12 0.62,0.62 0 0 0 3.54,11.45 2.15,2.15 0 0 1 2.75,8.52 L 4.36,5.73 a 2.18,2.18 0 0 1 1.3,-1 2.09,2.09 0 0 1 1.62,0.27 0.65,0.65 0 0 0 1,-0.55 2.14,2.14 0 0 1 2.14,-2.15 h 3.22 a 2.14,2.14 0 0 1 2.14,2.14 0.63,0.63 0 0 0 0.32,0.56 0.61,0.61 0 0 0 0.64,0 2.12,2.12 0 0 1 1.63,-0.22 2.18,2.18 0 0 1 1.3,1 l 1.61,2.79 v 0 a 2.14,2.14 0 0 1 -0.78,2.92 0.63,0.63 0 0 0 -0.33,0.56 0.62,0.62 0 0 0 0.32,0.55 2.15,2.15 0 0 1 0.79,2.93 l -1.61,2.79 a 2.18,2.18 0 0 1 -1.3,1 2.09,2.09 0 0 1 -1.62,-0.22 0.65,0.65 0 0 0 -1,0.55 2.14,2.14 0 0 1 -2.14,2.1 z m -6,-4.29 a 2.15,2.15 0 0 1 1.07,0.29 2.12,2.12 0 0 1 1.07,1.85 0.65,0.65 0 0 0 0.64,0.65 h 3.22 a 0.64,0.64 0 0 0 0.64,-0.64 2.13,2.13 0 0 1 1.07,-1.86 2.1,2.1 0 0 1 2.14,0 0.64,0.64 0 0 0 0.88,-0.23 L 20,14.73 a 0.63,0.63 0 0 0 -0.23,-0.87 2.14,2.14 0 0 1 0,-3.71 A 0.64,0.64 0 0 0 20,9.27 L 18.34,6.48 A 0.65,0.65 0 0 0 17.95,6.18 0.62,0.62 0 0 0 17.47,6.25 2.15,2.15 0 0 1 14.25,4.4 0.65,0.65 0 0 0 13.61,3.75 H 10.39 A 0.64,0.64 0 0 0 9.75,4.39 2.13,2.13 0 0 1 8.68,6.25 2.1,2.1 0 0 1 6.54,6.25 0.64,0.64 0 0 0 5.66,6.48 L 4.05,9.27 a 0.63,0.63 0 0 0 0.23,0.87 2.14,2.14 0 0 1 0,3.71 0.64,0.64 0 0 0 -0.24,0.88 l 1.61,2.79 a 0.65,0.65 0 0 0 0.39,0.3 0.62,0.62 0 0 0 0.48,-0.07 2.21,2.21 0 0 1 1.09,-0.29 z"
       id="path4" />
    <path
       d="M 12,15.75 A 3.75,3.75 0 1 1 15.75,12 3.75,3.75 0 0 1 12,15.75 Z m 0,-6 A 2.25,2.25 0 1 0 14.25,12 2.25,2.25 0 0 0 12,9.75 Z"
       id="path6" />
  </g>
  <metadata
     id="metadata143">
    <rdf:RDF>
      <cc:Work
         rdf:about="">
        <dc:title>Artboard 87</dc:title>
      </cc:Work>
    </rdf:RDF>
  </metadata>
</svg>
