<?xml version="1.0" encoding="UTF-8" standalone="no"?>
<svg
   version="1.1"
   viewBox="-5 -5 110 110"
   id="svg8"
   sodipodi:docname="noun-led-light-8423756.svg"
   width="110"
   height="110"
   inkscape:version="1.2.2 (b0a8486541, 2022-12-01)"
   xmlns:inkscape="http://www.inkscape.org/namespaces/inkscape"
   xmlns:sodipodi="http://sodipodi.sourceforge.net/DTD/sodipodi-0.dtd"
   xmlns="http://www.w3.org/2000/svg"
   xmlns:svg="http://www.w3.org/2000/svg">
  <defs
     id="defs12" />
  <sodipodi:namedview
     id="namedview10"
     pagecolor="#ffffff"
     bordercolor="#666666"
     borderopacity="1.0"
     inkscape:showpageshadow="2"
     inkscape:pageopacity="0.0"
     inkscape:pagecheckerboard="0"
     inkscape:deskcolor="#d1d1d1"
     showgrid="false"
     inkscape:zoom="4.9037037"
     inkscape:cx="33.138218"
     inkscape:cy="58.017372"
     inkscape:window-width="1600"
     inkscape:window-height="831"
     inkscape:window-x="0"
     inkscape:window-y="32"
     inkscape:window-maximized="1"
     inkscape:current-layer="svg8" />
  <path
     d="m 70.09,60.02 c 0,-0.66406 -0.54297,-1.207 -1.207,-1.207 H 31.117 c -0.66406,0 -1.207,0.54297 -1.207,1.207 v 3.5039 c 0,0.66406 0.54297,1.207 1.207,1.207 h 37.766 c 0.66406,0 1.207,-0.54297 1.207,-1.207 z M 39.5,56.2388 h 5.5898 v -9.0312 c 0,-0.71094 0.57812,-1.2852 1.2852,-1.2852 0.71094,0 1.2852,0.57812 1.2852,1.2852 v 9.0312 h 4.6719 l 0.0039,-15.086 c 0,-0.71094 0.57812,-1.2852 1.2852,-1.2852 0.71094,0 1.2852,0.57812 1.2852,1.2852 l 0.0039,15.086 h 5.5898 v -19.465 c 0,-5.7891 -4.7109,-10.5 -10.5,-10.5 -5.7891,0 -10.5,4.7109 -10.5,10.5 z M 72.664,60.02 v 3.5039 c 0,2.0859 -1.6953,3.7812 -3.7812,3.7812 h -10.293 v 8.125 c 0,0.71094 -0.57422,1.2852 -1.2852,1.2852 -0.71094,0 -1.2852,-0.57812 -1.2852,-1.2852 v -8.125 h -12.035 v 23.859 c 0,0.71094 -0.57422,1.2852 -1.2852,1.2852 -0.71094,0 -1.2852,-0.57422 -1.2852,-1.2852 l -0.0039,-23.859 h -10.293 c -2.0859,0 -3.7812,-1.6953 -3.7812,-3.7812 V 60.02 c 0,-2.0859 1.6953,-3.7812 3.7812,-3.7812 h 5.8086 l 0.0039,-19.465 c 0,-7.207 5.8633,-13.074 13.074,-13.074 7.2109,0 13.074,5.8633 13.074,13.074 l -0.0039,19.465 h 5.8086 c 2.0859,0 3.7812,1.6992 3.7812,3.7812 z M 31.426,44.645 c 0,-0.71094 -0.57812,-1.2852 -1.2852,-1.2852 l -8.0781,-0.0039 c -0.71094,0 -1.2852,0.57422 -1.2852,1.2852 0,0.71098 0.57812,1.2852 1.2852,1.2852 h 8.0781 c 0.71094,0.0039 1.2852,-0.57422 1.2852,-1.2812 z m 0.25391,-16.504 c 0.25391,0.25 0.58203,0.375 0.91016,0.375 0.32813,0 0.66016,-0.125 0.91016,-0.375 0.50391,-0.50391 0.50391,-1.3164 0,-1.8203 l -5.875,-5.875 c -0.5,-0.5 -1.3164,-0.5 -1.8164,0 -0.50391,0.50391 -0.50391,1.3164 0,1.8203 z m 18.32,-9.9414 c 0.71094,0 1.2852,-0.57422 1.2852,-1.2852 l 0.0039,-8.0781 c 0,-0.71094 -0.57422,-1.2852 -1.2852,-1.2852 -0.71094,0 -1.2852,0.57812 -1.2852,1.2852 v 8.0742 c -0.0039,0.71094 0.57031,1.2891 1.2812,1.2891 z m 17.41,10.32 c 0.32812,0 0.66016,-0.125 0.91016,-0.375 l 5.8711,-5.875 c 0.50391,-0.50391 0.50391,-1.3164 0,-1.8203 -0.50391,-0.5 -1.3164,-0.5 -1.8203,0 l -5.8711,5.875 c -0.50391,0.50391 -0.50391,1.3164 0,1.8203 0.25391,0.25 0.58203,0.375 0.91016,0.375 z m 11.812,16.125 c 0,-0.71094 -0.57422,-1.2852 -1.2852,-1.2852 h -8.0742 c -0.71094,0 -1.2852,0.57422 -1.2852,1.2852 0,0.71094 0.57422,1.2852 1.2852,1.2852 h 8.0742 c 0.71094,0 1.2852,-0.57813 1.2852,-1.2852 z"
     fill-rule="evenodd"
     id="path2" />
</svg>
