<?xml version="1.0" encoding="UTF-8" standalone="no"?>
<svg
   version="1.1"
   x="0px"
   y="0px"
   viewBox="0 0 100 100"
   enable-background="new 0 0 100 100"
   xml:space="preserve"
   id="svg8"
   sodipodi:docname="noun-5x-tap-1217479.svg"
   width="100"
   height="100"
   inkscape:version="1.2.2 (b0a8486541, 2022-12-01)"
   xmlns:inkscape="http://www.inkscape.org/namespaces/inkscape"
   xmlns:sodipodi="http://sodipodi.sourceforge.net/DTD/sodipodi-0.dtd"
   xmlns="http://www.w3.org/2000/svg"
   xmlns:svg="http://www.w3.org/2000/svg"><defs
     id="defs12" /><sodipodi:namedview
     id="namedview10"
     pagecolor="#ffffff"
     bordercolor="#666666"
     borderopacity="1.0"
     inkscape:showpageshadow="2"
     inkscape:pageopacity="0.0"
     inkscape:pagecheckerboard="0"
     inkscape:deskcolor="#d1d1d1"
     showgrid="false"
     inkscape:zoom="5.296"
     inkscape:cx="29.739426"
     inkscape:cy="48.999245"
     inkscape:window-width="1600"
     inkscape:window-height="831"
     inkscape:window-x="0"
     inkscape:window-y="32"
     inkscape:window-maximized="1"
     inkscape:current-layer="svg8" /><path
     fill-rule="evenodd"
     clip-rule="evenodd"
     d="m 7.801,65.424 c 0,-4.133 1.449,-7.65 4.35,-10.551 2.9,-2.832 6.416,-4.25 10.549,-4.25 1.234,0 2.25,0.084 3.051,0.25 0.467,0.102 0.85,0.352 1.15,0.75 0.266,0.4 0.35,0.834 0.25,1.301 -0.1,0.467 -0.35,0.85 -0.75,1.15 -0.4,0.266 -0.834,0.35 -1.301,0.25 -0.666,-0.133 -1.467,-0.201 -2.4,-0.201 -3.166,0 -5.865,1.084 -8.1,3.25 -2.199,2.201 -3.299,4.885 -3.299,8.051 0,3.133 1.1,5.801 3.299,8 0.5,0.5 0.967,0.9 1.4,1.199 0.4,0.268 0.633,0.65 0.699,1.15 0.068,0.467 -0.033,0.9 -0.299,1.301 -0.4,0.5 -0.883,0.75 -1.451,0.75 -0.299,0 -0.633,-0.117 -1,-0.35 -0.6,-0.434 -1.217,-0.984 -1.85,-1.65 -2.867,-2.8 -4.298,-6.267 -4.298,-10.4 z m 35.699,-48 c -0.066,0.434 -0.283,0.801 -0.65,1.1 -0.367,0.268 -0.783,0.367 -1.25,0.301 h -0.799 c -3.168,0 -5.867,1.082 -8.102,3.25 -1.398,1.4 -2.35,3 -2.85,4.799 -0.133,0.467 -0.416,0.818 -0.85,1.051 -0.4,0.268 -0.834,0.316 -1.301,0.15 -0.467,-0.133 -0.816,-0.418 -1.049,-0.85 -0.234,-0.4 -0.283,-0.834 -0.15,-1.301 0.633,-2.268 1.867,-4.383 3.699,-6.35 2.9,-2.768 6.301,-4.184 10.201,-4.25 0.666,-2.334 1.9,-4.418 3.699,-6.25 2.9,-2.9 6.4,-4.35 10.5,-4.35 4.066,0 7.551,1.449 10.451,4.35 0.898,0.867 1.648,1.816 2.25,2.85 3.932,0.066 7.283,1.482 10.049,4.25 2.5,2.5 3.951,5.449 4.35,8.85 2.268,0.668 4.301,1.9 6.102,3.701 2.932,2.932 4.398,6.432 4.398,10.5 v 0.6 c 0,0.467 -0.166,0.883 -0.5,1.25 -0.365,0.332 -0.783,0.5 -1.25,0.5 -0.5,0 -0.916,-0.168 -1.25,-0.5 -0.332,-0.367 -0.5,-0.783 -0.5,-1.25 v -0.6 c 0,-3.135 -1.115,-5.818 -3.35,-8.051 -1.666,-1.666 -3.549,-2.666 -5.65,-3 -0.398,-0.066 -0.732,-0.268 -1,-0.6 C 78.432,27.273 78.3,26.906 78.3,26.474 78.198,23.406 77.066,20.79 74.9,18.622 72.732,16.489 70.084,15.423 66.949,15.423 H 66.6 c -0.867,0.1 -1.482,-0.217 -1.85,-0.949 -0.6,-1.135 -1.316,-2.117 -2.15,-2.951 -2.199,-2.199 -4.867,-3.299 -8,-3.299 -3.1,0 -5.783,1.1 -8.049,3.299 -1.635,1.702 -2.651,3.669 -3.051,5.901 z M 29.75,32.975 c 0.133,0.467 0.084,0.916 -0.15,1.35 -0.232,0.4 -0.582,0.666 -1.049,0.799 l -0.5,0.102 c -0.367,0 -0.717,-0.117 -1.051,-0.352 -0.301,-0.266 -0.5,-0.582 -0.6,-0.949 -0.1,-0.301 -0.184,-0.75 -0.25,-1.35 -0.033,-0.467 0.1,-0.883 0.4,-1.25 0.299,-0.367 0.682,-0.584 1.148,-0.65 0.467,-0.033 0.885,0.1 1.25,0.4 0.4,0.299 0.617,0.684 0.65,1.15 z m 22.35,-9.5 v 33.25 c 0,0.467 -0.166,0.865 -0.5,1.199 -0.332,0.334 -0.732,0.5 -1.199,0.5 -0.467,0.033 -0.883,-0.1 -1.25,-0.4 -0.334,-0.299 -0.518,-0.684 -0.551,-1.15 l -2.4,-26.25 c -0.133,-1.066 -0.533,-1.949 -1.199,-2.648 -0.533,-0.533 -1.166,-0.783 -1.9,-0.75 -0.799,0.1 -1.449,0.467 -1.949,1.1 -0.533,0.9 -0.75,1.867 -0.65,2.9 l 3.051,37.949 c 0.066,0.666 -0.184,1.184 -0.75,1.551 -0.5,0.398 -1.084,0.449 -1.75,0.148 -8.533,-4.166 -13.467,-6.732 -14.801,-7.699 -1.199,-0.834 -2.65,-0.434 -4.35,1.199 -1.033,1.033 -0.768,2.568 0.799,4.602 2.102,2.865 4.301,5.482 6.602,7.85 2.033,2.199 5.35,5.1 9.949,8.699 l 7.25,5.701 c 0.367,0.266 0.584,0.648 0.65,1.148 0.066,0.467 -0.051,0.9 -0.35,1.301 -0.367,0.467 -0.834,0.699 -1.4,0.699 -0.334,0 -0.684,-0.133 -1.051,-0.398 -2.332,-1.801 -4.75,-3.701 -7.25,-5.701 -4.766,-3.699 -8.199,-6.717 -10.299,-9.049 -2.4,-2.467 -4.701,-5.184 -6.9,-8.15 -1.6,-2.066 -2.301,-4.018 -2.1,-5.85 0.133,-1.268 0.682,-2.385 1.648,-3.352 3.102,-2.932 6.033,-3.449 8.801,-1.549 1.301,0.9 5.166,2.916 11.6,6.049 l -2.799,-34.85 c -0.201,-1.867 0.199,-3.582 1.199,-5.15 l 0.1,-0.148 c 1.168,-1.533 2.65,-2.352 4.451,-2.451 1.865,-0.199 3.432,0.4 4.699,1.801 0.5,0.5 0.867,0.949 1.1,1.35 v -3.449 c 0,-1.967 0.551,-3.65 1.65,-5.051 1.301,-1.467 2.867,-2.199 4.699,-2.199 1.867,0 3.4,0.732 4.602,2.199 1.166,1.434 1.75,3.117 1.75,5.051 v 2.5 c 0.365,-1.168 0.967,-2.15 1.799,-2.951 1.268,-1.434 2.85,-2.016 4.75,-1.75 1.734,0.1 3.184,0.918 4.35,2.451 l 0.102,0.148 c 1,1.5 1.398,3.234 1.199,5.201 l -0.449,4.949 c 1,-0.533 2.049,-0.717 3.148,-0.549 1.768,0.1 3.25,0.949 4.451,2.549 1.033,1.6 1.449,3.35 1.25,5.25 l -1.6,22.051 c -0.135,7.6 -1,14.766 -2.602,21.5 l -0.949,3.199 c -0.133,0.467 -0.416,0.816 -0.85,1.051 -0.434,0.232 -0.883,0.266 -1.35,0.1 -0.467,-0.133 -0.818,-0.416 -1.051,-0.85 -0.199,-0.434 -0.232,-0.883 -0.1,-1.35 l 0.9,-3 c 1.5,-6.334 2.35,-13.268 2.549,-20.801 l 1.6,-22.199 c 0.102,-1.135 -0.133,-2.117 -0.699,-2.951 -0.434,-0.633 -1.051,-1 -1.85,-1.1 -0.768,-0.033 -1.4,0.217 -1.9,0.75 -0.666,0.666 -1.084,1.551 -1.25,2.65 l -2.25,22.15 c -0.033,0.467 -0.232,0.85 -0.6,1.148 -0.367,0.334 -0.801,0.467 -1.301,0.4 -0.467,-0.033 -0.85,-0.232 -1.15,-0.6 -0.299,-0.367 -0.432,-0.783 -0.398,-1.25 l 0.449,-6.25 v -0.051 l 2.551,-27.148 c 0.1,-1.033 -0.117,-2 -0.65,-2.9 -0.5,-0.633 -1.133,-1 -1.9,-1.1 -0.768,-0.102 -1.383,0.133 -1.85,0.699 -0.734,0.732 -1.168,1.633 -1.301,2.699 l -3.1,29.852 c -0.033,0.467 -0.232,0.85 -0.6,1.148 -0.334,0.301 -0.734,0.434 -1.201,0.4 -0.467,-0.034 -0.865,-0.217 -1.199,-0.549 -0.301,-0.301 -0.449,-0.684 -0.449,-1.15 v -34.35 c 0,-1.068 -0.318,-2 -0.951,-2.801 -0.5,-0.633 -1.133,-0.949 -1.9,-0.949 -0.732,0 -1.398,0.332 -2,1 -0.567,0.668 -0.85,1.584 -0.85,2.752 z m 21.701,67.799 c 0.467,0.168 0.799,0.467 1,0.9 0.232,0.434 0.266,0.883 0.1,1.35 l -0.25,0.65 c -0.334,0.732 -0.883,1.1 -1.65,1.1 l -0.65,-0.15 c -0.434,-0.166 -0.75,-0.482 -0.949,-0.949 -0.168,-0.434 -0.168,-0.883 0,-1.35 l 0.15,-0.4 c 0.166,-0.467 0.467,-0.816 0.898,-1.051 0.433,-0.2 0.884,-0.233 1.351,-0.1 z"
     id="path2" /></svg>
